<?xml version="1.0" encoding="utf-8"?>
<!-- Generator: Adobe Illustrator 20.1.0, SVG Export Plug-In . SVG Version: 6.00 Build 0)  -->
<svg version="1.1" id="Layer_1" xmlns="http://www.w3.org/2000/svg" xmlns:xlink="http://www.w3.org/1999/xlink" x="0px" y="0px"
	 viewBox="0 0 120 120" style="enable-background:new 0 0 120 120;" xml:space="preserve">
<style type="text/css">
	.st0{fill:#226DA7;}
	.st1{fill:#808385;}
	.st2{fill:#D42F2C;}
</style>
<g>
	<g>
		<path class="st0" d="M101.3,113.6h-0.6v-4.1h-1.1v-0.5h2.9v0.5h-1.1L101.3,113.6L101.3,113.6z"/>
		<path class="st0" d="M102.9,109.1h0.9l0.9,3.6l0,0l0.9-3.6h0.9v4.6h-0.6v-4l0,0l-1,4h-0.6l-1-4l0,0v4h-0.6L102.9,109.1
			L102.9,109.1z"/>
	</g>
	<rect y="32.4" class="st0" width="20.6" height="81.3"/>
	<rect y="8.1" class="st1" width="20.6" height="18.9"/>
	<polygon class="st2" points="28,48.2 50.7,48.2 61.6,74.3 93.2,5.6 114.3,5.6 73.3,91.7 49.2,91.7 	"/>
	<g>
		<path class="st0" d="M49.8,45.4V28h16.6c4.9,0,9.1,0.6,12.7,1.8l8.8-19.2C83,9.2,77.7,8.5,72.1,8.5H26.7v36.9H49.8z"/>
		<path class="st0" d="M108.6,24L95.8,50.9c0.7,3.6,1,7.6,1,12c0,20.6-10,29.4-21.6,31.3l-0.1,0.1l-4.5,0.3H49.8h-2.4L26.6,51.7
			v62.4h45.5c32.2,0,47.9-22.8,47.9-53.4C120,44.8,115.8,32.6,108.6,24z"/>
	</g>
</g>
</svg>
