<svg id="Layer_1" data-name="Layer 1" xmlns="http://www.w3.org/2000/svg" width="158" height="108.39" viewBox="0 0 158 108.39">
  <defs>
    <style>
      .cls-1 {
        fill: #626262;
      }

      .cls-2 {
        fill: #3c5c8c;
      }
    </style>
  </defs>
  <title>new-logo</title>
  <g>
    <path id="_Compound_Path_" data-name="&lt;Compound Path&gt;" class="cls-1" d="M17.39,36.16a46.68,46.68,0,0,0-2.67,20.58q0.21,2.29.63,4.5l0.05,0.29c0.18,0.91.39,1.8,0.61,2.68,0.34,1.34.75,2.65,1.19,3.91,2.35,6.73,6,12.29,10,15.78a58,58,0,0,1-6.83-15.78l-0.1-.39-0.07-.26q-0.31-1.3-.55-2.6a45.61,45.61,0,0,1-.75-8.13,46.77,46.77,0,0,1,.89-9.16A45.19,45.19,0,0,1,37.22,19.5,45.61,45.61,0,0,0,42.88,25c-6,4.76-11.7,11.69-15.89,21.74,0,0,6.39-10,19.42-19.08a69.88,69.88,0,0,0,19.26,9.08,18.45,18.45,0,0,0-.59,2.09c0.35-.61.76-1.25,1.21-1.91a55.79,55.79,0,0,0,5.63,1.38c-1.71-.73-3.36-1.51-5-2.33A102.86,102.86,0,0,1,78.46,23.63,71.73,71.73,0,0,0,89.38,27.8S85.14,25.28,80.19,22c0.83-.75,1.32-1.18,1.32-1.18-0.71.21-1.39,0.45-2,.71-2.68-1.76-5.5-3.71-8-5.56q2.31-.62,4.75-1.11A37.42,37.42,0,0,0,70,14.84a25.36,25.36,0,0,1-4.58-4.35c14,0.27,29.24,6.71,39.51,23.42-3.19-12-17.72-27.72-39.54-29.24C44.42,3.2,25.12,15.21,17.39,36.16Zm50.12-19a73.29,73.29,0,0,0,9.31,5.64A24.71,24.71,0,0,0,66.1,35.56,90.43,90.43,0,0,1,50.49,25,79.49,79.49,0,0,1,67.5,17.19Zm-7.72-6.47a52.87,52.87,0,0,0,5.31,4.68,48.7,48.7,0,0,0-18,6.66,73.25,73.25,0,0,1-5.49-5.56A44.15,44.15,0,0,1,59.79,10.71Z" transform="translate(-0.76 -0.8)"/>
    <path id="_Path_" data-name="&lt;Path&gt;" class="cls-2" d="M52.1,104.51a19,19,0,0,1-4.13-1l-0.16-.06c-0.53-.16-0.84-0.27-0.85-0.28h0c-11-3.69-19.81-9.27-26.31-16.57a15.59,15.59,0,0,1-2-2.35,48.33,48.33,0,0,1-7.94-14.88A56.85,56.85,0,0,1,8.68,58.45q-0.07-.85-0.14-1.71c-0.06-.81-0.11-1.61-0.15-2.42,0-.62,0-1.28-0.06-2a41.3,41.3,0,0,1,.17-4.67C10.52,27.4,21.12,12.73,40,4A61.57,61.57,0,0,1,49.51.8,45,45,0,0,0,36.22,3.5a52.3,52.3,0,0,0-23,16.23,54.68,54.68,0,0,0,19.76,84.47,53.52,53.52,0,0,0,22,5,51.13,51.13,0,0,0,22.95-5.66,52.83,52.83,0,0,1-14.72,2A59.53,59.53,0,0,1,52.1,104.51Z" transform="translate(-0.76 -0.8)"/>
    <g id="_Group_" data-name="&lt;Group&gt;">
      <path id="_Compound_Path_2" data-name="&lt;Compound Path&gt;" class="cls-2" d="M38.13,85.65H36.51v1.69H35.43V81.59h2.71A2,2,0,1,1,38.13,85.65Zm-1.62-1h1.62a1,1,0,1,0,0-2H36.51v2Z" transform="translate(-0.76 -0.8)"/>
      <path id="_Compound_Path_3" data-name="&lt;Compound Path&gt;" class="cls-2" d="M46.07,87.34H44.78L43.1,85.42h-1v1.92H41V81.59h2.73a1.9,1.9,0,0,1,2.07,1.9,1.7,1.7,0,0,1-1.45,1.81l1.74,2v0.07Zm-4-4.73v1.84h1.65a0.92,0.92,0,1,0,0-1.84H42.06Z" transform="translate(-0.76 -0.8)"/>
      <path id="_Compound_Path_4" data-name="&lt;Compound Path&gt;" class="cls-2" d="M52.15,84.5a2.95,2.95,0,1,1-5.9,0A3,3,0,1,1,52.15,84.5Zm-4.83,0a1.88,1.88,0,1,0,3.77,0A1.89,1.89,0,1,0,47.32,84.52Z" transform="translate(-0.76 -0.8)"/>
      <path id="_Compound_Path_5" data-name="&lt;Compound Path&gt;" class="cls-2" d="M52.95,87.34V81.6h4.13v1H54v1.57h2.88v1H54v2.13H52.95Z" transform="translate(-0.76 -0.8)"/>
      <path id="_Compound_Path_6" data-name="&lt;Compound Path&gt;" class="cls-2" d="M62.11,87.34h-4.3V81.59h4.3v1.05H58.88V84H62v1H58.88v1.3h3.22v1.07Z" transform="translate(-0.76 -0.8)"/>
      <path id="_Compound_Path_7" data-name="&lt;Compound Path&gt;" class="cls-2" d="M66.66,83a1.65,1.65,0,0,0-1.36-.64c-0.8,0-1.19.34-1.19,0.76s0.59,0.64,1.28.72c1.2,0.15,2.31.46,2.31,1.83s-1.13,1.83-2.41,1.83a2.39,2.39,0,0,1-2.5-1.41l0.9-.47a1.64,1.64,0,0,0,1.62.91,1.09,1.09,0,0,0,1.32-.86c0-.54-0.57-0.76-1.33-0.85C64.12,84.67,63,84.36,63,83.07s1.17-1.67,2.22-1.67a2.32,2.32,0,0,1,2.26,1.14Z" transform="translate(-0.76 -0.8)"/>
      <path id="_Compound_Path_8" data-name="&lt;Compound Path&gt;" class="cls-2" d="M72.08,83a1.65,1.65,0,0,0-1.36-.64c-0.8,0-1.19.34-1.19,0.76s0.59,0.64,1.28.72c1.2,0.15,2.31.46,2.31,1.83S72,87.49,70.71,87.49a2.39,2.39,0,0,1-2.5-1.41l0.9-.47a1.64,1.64,0,0,0,1.62.91A1.09,1.09,0,0,0,72,85.66c0-.54-0.57-0.76-1.33-0.85-1.17-.14-2.26-0.45-2.26-1.74s1.17-1.67,2.22-1.67a2.32,2.32,0,0,1,2.26,1.14Z" transform="translate(-0.76 -0.8)"/>
      <path id="_Compound_Path_9" data-name="&lt;Compound Path&gt;" class="cls-2" d="M74,87.34V81.59H75v5.74H74Z" transform="translate(-0.76 -0.8)"/>
      <path id="_Compound_Path_10" data-name="&lt;Compound Path&gt;" class="cls-2" d="M81.88,84.5a2.95,2.95,0,1,1-5.9,0A3,3,0,1,1,81.88,84.5Zm-4.83,0a1.88,1.88,0,1,0,3.77,0A1.89,1.89,0,1,0,77,84.52Z" transform="translate(-0.76 -0.8)"/>
      <path id="_Compound_Path_11" data-name="&lt;Compound Path&gt;" class="cls-2" d="M86.45,81.59h1.08v5.75H86.86l-3-3.88v3.87H82.75V81.59h0.88l2.81,3.56V81.59Z" transform="translate(-0.76 -0.8)"/>
      <path id="_Compound_Path_12" data-name="&lt;Compound Path&gt;" class="cls-2" d="M92.6,86.26h-3L89.1,87.34H87.93l2.58-5.74h1.18l2.58,5.74H93.08ZM91.1,82.8L90,85.25h2.13Z" transform="translate(-0.76 -0.8)"/>
      <path id="_Compound_Path_13" data-name="&lt;Compound Path&gt;" class="cls-2" d="M95.92,81.59v4.74h3v1h-4V81.59h1.08Z" transform="translate(-0.76 -0.8)"/>
      <path id="_Compound_Path_14" data-name="&lt;Compound Path&gt;" class="cls-2" d="M106,83.26a1.17,1.17,0,0,1-.75,1.11,1.4,1.4,0,0,1,.92,1.28c0,1.28-1,1.69-2.15,1.69h-2.72V81.59H104C105.12,81.59,106,82.1,106,83.26Zm-3.63.64H104c0.68,0,.9-0.29.9-0.62a0.78,0.78,0,0,0-.9-0.71h-1.66V83.9Zm0,2.43H104a0.91,0.91,0,0,0,1.07-.69,1,1,0,0,0-1.07-.79h-1.66v1.48Z" transform="translate(-0.76 -0.8)"/>
      <path id="_Compound_Path_15" data-name="&lt;Compound Path&gt;" class="cls-2" d="M111,86.26h-3l-0.49,1.08h-1.17l2.58-5.74h1.18l2.58,5.74h-1.18Zm-1.5-3.45-1.07,2.45h2.13Z" transform="translate(-0.76 -0.8)"/>
      <path id="_Compound_Path_16" data-name="&lt;Compound Path&gt;" class="cls-2" d="M117.85,86.62a3,3,0,0,1-2.18.85,2.82,2.82,0,0,1-3-3,2.89,2.89,0,0,1,3-3,3,3,0,0,1,2.11.88l-0.72.7a2,2,0,0,0-1.39-.54,1.88,1.88,0,0,0-2,2,1.84,1.84,0,0,0,2,1.94,2.12,2.12,0,0,0,1.44-.58Z" transform="translate(-0.76 -0.8)"/>
      <path id="_Compound_Path_17" data-name="&lt;Compound Path&gt;" class="cls-2" d="M123.08,81.63l-2.55,2.75,2.77,2.9v0.07H122l-2.4-2.54v2.54h-1.08V81.59h1.08V84l2.18-2.43h1.35v0Z" transform="translate(-0.76 -0.8)"/>
      <path id="_Compound_Path_18" data-name="&lt;Compound Path&gt;" class="cls-2" d="M128.11,83a2.2,2.2,0,0,0-1.46-.57,2,2,0,0,0-2,2.12,1.82,1.82,0,0,0,2,1.92,1.91,1.91,0,0,0,1.3-.46V85h-1.47V84h2.46v2.42a2.86,2.86,0,0,1-2.29,1,2.77,2.77,0,0,1-3-2.93,2.92,2.92,0,0,1,3-3.11,3,3,0,0,1,2.13.88Z" transform="translate(-0.76 -0.8)"/>
      <path id="_Compound_Path_19" data-name="&lt;Compound Path&gt;" class="cls-2" d="M134.83,87.34h-1.29l-1.67-1.92h-1v1.92h-1.08V81.59h2.73a1.9,1.9,0,0,1,2.07,1.9,1.7,1.7,0,0,1-1.45,1.81l1.74,2v0.07Zm-4-4.73v1.84h1.65a0.92,0.92,0,1,0,0-1.84h-1.65Z" transform="translate(-0.76 -0.8)"/>
      <path id="_Compound_Path_20" data-name="&lt;Compound Path&gt;" class="cls-2" d="M140.92,84.5a2.95,2.95,0,1,1-5.9,0A3,3,0,1,1,140.92,84.5Zm-4.83,0a1.88,1.88,0,1,0,3.77,0A1.89,1.89,0,1,0,136.09,84.52Z" transform="translate(-0.76 -0.8)"/>
      <path id="_Compound_Path_21" data-name="&lt;Compound Path&gt;" class="cls-2" d="M146.75,81.6v3.29a2.33,2.33,0,0,1-2.49,2.57,2.4,2.4,0,0,1-2.55-2.57V81.6h1.07v3.29a1.41,1.41,0,0,0,1.49,1.58,1.37,1.37,0,0,0,1.4-1.58V81.6h1.07Z" transform="translate(-0.76 -0.8)"/>
      <path id="_Compound_Path_22" data-name="&lt;Compound Path&gt;" class="cls-2" d="M151.58,81.59h1.08v5.75H152l-3-3.88v3.87h-1.08V81.59h0.88l2.81,3.56V81.59Z" transform="translate(-0.76 -0.8)"/>
      <path id="_Compound_Path_23" data-name="&lt;Compound Path&gt;" class="cls-2" d="M158.71,84.42a2.72,2.72,0,0,1-2.87,2.92h-2.26V81.59h2.26A2.71,2.71,0,0,1,158.71,84.42Zm-4.05,1.88h1.18a1.84,1.84,0,0,0,0-3.68h-1.18V86.3Z" transform="translate(-0.76 -0.8)"/>
    </g>
    <g id="_Group_2" data-name="&lt;Group&gt;">
      <path id="_Compound_Path_24" data-name="&lt;Compound Path&gt;" class="cls-1" d="M38.35,91.28a1.24,1.24,0,0,0-1-.48c-0.61,0-.9.25-0.9,0.58s0.45,0.48,1,.55c0.91,0.11,1.75.35,1.75,1.38s-0.86,1.38-1.82,1.38a1.8,1.8,0,0,1-1.89-1.07l0.68-.35a1.24,1.24,0,0,0,1.22.69,0.82,0.82,0,0,0,1-.65c0-.41-0.43-0.58-1-0.64-0.89-.11-1.71-0.34-1.71-1.32a1.46,1.46,0,0,1,1.68-1.27,1.76,1.76,0,0,1,1.71.86Z" transform="translate(-0.76 -0.8)"/>
      <path id="_Compound_Path_25" data-name="&lt;Compound Path&gt;" class="cls-1" d="M45.84,94a2.29,2.29,0,0,1-1.65.65,2.14,2.14,0,0,1-2.3-2.24,2.19,2.19,0,0,1,2.3-2.29,2.24,2.24,0,0,1,1.59.66l-0.55.53a1.49,1.49,0,0,0-1-.41,1.42,1.42,0,0,0-1.5,1.51,1.39,1.39,0,0,0,1.5,1.47,1.6,1.6,0,0,0,1.09-.44Z" transform="translate(-0.76 -0.8)"/>
      <path id="_Compound_Path_26" data-name="&lt;Compound Path&gt;" class="cls-1" d="M52.39,94.57h-1l-1.27-1.45H49.36v1.45H48.54V90.22H50.6a1.44,1.44,0,0,1,1.56,1.44A1.29,1.29,0,0,1,51.07,93l1.32,1.48v0.06Zm-3-3.58v1.39H50.6a0.7,0.7,0,1,0,0-1.39H49.36Z" transform="translate(-0.76 -0.8)"/>
      <path id="_Compound_Path_27" data-name="&lt;Compound Path&gt;" class="cls-1" d="M58.19,94.57H54.94V90.23h3.25V91H55.76v1h2.35v0.76H55.76v1h2.44v0.81Z" transform="translate(-0.76 -0.8)"/>
      <path id="_Compound_Path_28" data-name="&lt;Compound Path&gt;" class="cls-1" d="M64.3,94.57H61V90.23H64.3V91H61.86v1h2.35v0.76H61.86v1H64.3v0.81Z" transform="translate(-0.76 -0.8)"/>
      <path id="_Compound_Path_29" data-name="&lt;Compound Path&gt;" class="cls-1" d="M70.15,90.22H71v4.35H70.46l-2.28-2.94v2.93H67.36V90.23H68l2.13,2.69v-2.7Z" transform="translate(-0.76 -0.8)"/>
      <path id="_Compound_Path_30" data-name="&lt;Compound Path&gt;" class="cls-1" d="M74,94.57V90.23h0.81v4.34H74Z" transform="translate(-0.76 -0.8)"/>
      <path id="_Compound_Path_31" data-name="&lt;Compound Path&gt;" class="cls-1" d="M80.63,90.22h0.82v4.35H80.94l-2.28-2.94v2.93H77.84V90.23h0.66l2.13,2.69v-2.7Z" transform="translate(-0.76 -0.8)"/>
      <path id="_Compound_Path_32" data-name="&lt;Compound Path&gt;" class="cls-1" d="M87.67,91.29a1.66,1.66,0,0,0-1.1-.43,1.48,1.48,0,0,0-1.5,1.6,1.38,1.38,0,0,0,1.5,1.45,1.44,1.44,0,0,0,1-.35V92.79H86.43V92.06h1.86v1.83a2.16,2.16,0,0,1-1.73.78,2.09,2.09,0,0,1-2.3-2.22,2.21,2.21,0,0,1,2.3-2.35,2.29,2.29,0,0,1,1.61.66Z" transform="translate(-0.76 -0.8)"/>
      <path id="_Compound_Path_33" data-name="&lt;Compound Path&gt;" class="cls-1" d="M97.77,93.75H95.5l-0.37.82H94.24l1.95-4.34h0.89L99,94.57H98.13Zm-1.14-2.61L95.83,93h1.61Z" transform="translate(-0.76 -0.8)"/>
      <path id="_Compound_Path_34" data-name="&lt;Compound Path&gt;" class="cls-1" d="M104.25,91.28a1.24,1.24,0,0,0-1-.48c-0.61,0-.9.25-0.9,0.58s0.45,0.48,1,.55c0.91,0.11,1.75.35,1.75,1.38s-0.86,1.38-1.82,1.38a1.8,1.8,0,0,1-1.89-1.07l0.68-.35a1.24,1.24,0,0,0,1.22.69,0.82,0.82,0,0,0,1-.65c0-.41-0.43-0.58-1-0.64-0.89-.11-1.71-0.34-1.71-1.32a1.46,1.46,0,0,1,1.68-1.27,1.76,1.76,0,0,1,1.71.86Z" transform="translate(-0.76 -0.8)"/>
      <path id="_Compound_Path_35" data-name="&lt;Compound Path&gt;" class="cls-1" d="M110.58,91.28a1.24,1.24,0,0,0-1-.48c-0.61,0-.9.25-0.9,0.58s0.45,0.48,1,.55c0.91,0.11,1.75.35,1.75,1.38s-0.86,1.38-1.82,1.38a1.8,1.8,0,0,1-1.89-1.07l0.68-.35a1.24,1.24,0,0,0,1.22.69,0.82,0.82,0,0,0,1-.65c0-.41-0.43-0.58-1-0.64-0.89-.11-1.71-0.34-1.71-1.32a1.46,1.46,0,0,1,1.68-1.27,1.76,1.76,0,0,1,1.71.86Z" transform="translate(-0.76 -0.8)"/>
      <path id="_Compound_Path_36" data-name="&lt;Compound Path&gt;" class="cls-1" d="M118.51,92.43a2.23,2.23,0,1,1-4.46,0A2.23,2.23,0,1,1,118.51,92.43Zm-3.65,0a1.43,1.43,0,1,0,2.85,0A1.43,1.43,0,1,0,114.85,92.45Z" transform="translate(-0.76 -0.8)"/>
      <path id="_Compound_Path_37" data-name="&lt;Compound Path&gt;" class="cls-1" d="M125.17,94a2.29,2.29,0,0,1-1.65.65,2.14,2.14,0,0,1-2.3-2.24,2.19,2.19,0,0,1,2.3-2.29,2.24,2.24,0,0,1,1.59.66l-0.55.53a1.49,1.49,0,0,0-1-.41,1.42,1.42,0,0,0-1.5,1.51,1.39,1.39,0,0,0,1.5,1.47,1.6,1.6,0,0,0,1.09-.44Z" transform="translate(-0.76 -0.8)"/>
      <path id="_Compound_Path_38" data-name="&lt;Compound Path&gt;" class="cls-1" d="M127.88,94.57V90.23h0.81v4.34h-0.81Z" transform="translate(-0.76 -0.8)"/>
      <path id="_Compound_Path_39" data-name="&lt;Compound Path&gt;" class="cls-1" d="M134.78,93.75h-2.27l-0.37.82h-0.89l1.95-4.34h0.89L136,94.57h-0.89Zm-1.14-2.61L132.84,93h1.61Z" transform="translate(-0.76 -0.8)"/>
      <path id="_Compound_Path_40" data-name="&lt;Compound Path&gt;" class="cls-1" d="M139.05,91h-1.38V90.23h3.57V91h-1.38v3.6h-0.82V91Z" transform="translate(-0.76 -0.8)"/>
      <path id="_Compound_Path_41" data-name="&lt;Compound Path&gt;" class="cls-1" d="M144,94.57V90.23h0.81v4.34H144Z" transform="translate(-0.76 -0.8)"/>
      <path id="_Compound_Path_42" data-name="&lt;Compound Path&gt;" class="cls-1" d="M152.2,92.43a2.23,2.23,0,1,1-4.46,0A2.23,2.23,0,1,1,152.2,92.43Zm-3.65,0a1.43,1.43,0,1,0,2.85,0A1.43,1.43,0,1,0,148.55,92.45Z" transform="translate(-0.76 -0.8)"/>
      <path id="_Compound_Path_43" data-name="&lt;Compound Path&gt;" class="cls-1" d="M157.9,90.22h0.82v4.35h-0.51l-2.28-2.94v2.93H155.1V90.23h0.66l2.13,2.69v-2.7Z" transform="translate(-0.76 -0.8)"/>
    </g>
    <path id="_Compound_Path_44" data-name="&lt;Compound Path&gt;" class="cls-2" d="M63.5,53.82a12.87,12.87,0,0,1-.8,4.46,9.92,9.92,0,0,1-2.28,3.66,14,14,0,0,1-4.53,3,16.43,16.43,0,0,1-6.22,1H44.22V77.07H35.45v-34H49.87a22.81,22.81,0,0,1,5.47.56,12.88,12.88,0,0,1,3.94,1.68,9,9,0,0,1,3.14,3.45A10.88,10.88,0,0,1,63.5,53.82Zm-9.06.2a4,4,0,0,0-.78-2.47,4.21,4.21,0,0,0-1.8-1.45,8.14,8.14,0,0,0-2.67-.6q-1.3-.06-3.47-0.06H44.22V59.59h2.51a20.48,20.48,0,0,0,3.69-.27,5.23,5.23,0,0,0,2.43-1.09,4.21,4.21,0,0,0,1.22-1.74A7.12,7.12,0,0,0,54.44,54Z" transform="translate(-0.76 -0.8)"/>
    <path id="_Compound_Path_45" data-name="&lt;Compound Path&gt;" class="cls-2" d="M95.06,66.67a9.53,9.53,0,0,1-1,4.4,9.08,9.08,0,0,1-2.73,3.22,12.74,12.74,0,0,1-4.42,2.15,24.34,24.34,0,0,1-6.1.64H66v-34H79.18a47,47,0,0,1,6,.27A12.35,12.35,0,0,1,89,44.58a6.69,6.69,0,0,1,2.89,2.64,8,8,0,0,1-.35,8.12,8.53,8.53,0,0,1-3.67,2.93v0.18a9.58,9.58,0,0,1,5.28,2.74A7.67,7.67,0,0,1,95.06,66.67Zm-11.23-14A3.75,3.75,0,0,0,83.41,51a2.63,2.63,0,0,0-1.49-1.26,7.25,7.25,0,0,0-2.38-.4q-1.43,0-4,0H74.71v7.19h1.37q2.08,0,3.54-.07a6.34,6.34,0,0,0,2.3-.46,2.82,2.82,0,0,0,1.55-1.36A4.77,4.77,0,0,0,83.84,52.7ZM86,66.53a4.26,4.26,0,0,0-.63-2.5,3.8,3.8,0,0,0-2.13-1.31,11.12,11.12,0,0,0-2.82-.32l-3.76,0H74.71v8.47h0.64q3.69,0,5.28,0a7.73,7.73,0,0,0,2.94-.59,3.59,3.59,0,0,0,1.88-1.52A4.51,4.51,0,0,0,86,66.53Z" transform="translate(-0.76 -0.8)"/>
    <path id="_Compound_Path_46" data-name="&lt;Compound Path&gt;" class="cls-2" d="M125.08,66.39a9.69,9.69,0,0,1-4.26,8.16q-4.26,3.14-11.56,3.14a32.29,32.29,0,0,1-7.36-.74A37.88,37.88,0,0,1,96,75.06V66.92h1a20.29,20.29,0,0,0,6.08,3.33,19.77,19.77,0,0,0,6.47,1.16q0.8,0,2.1-.14a8.4,8.4,0,0,0,2.12-.46,5.29,5.29,0,0,0,1.65-1,2.4,2.4,0,0,0,.65-1.83,2.46,2.46,0,0,0-.95-1.93,6.59,6.59,0,0,0-2.77-1.24q-1.92-.46-4.05-0.86a31,31,0,0,1-4-1,12.58,12.58,0,0,1-6.17-3.78,9.26,9.26,0,0,1-1.88-5.92,9.11,9.11,0,0,1,4.26-7.75q4.26-3,10.94-3a34,34,0,0,1,6.63.65,31,31,0,0,1,5.67,1.63v7.83h-0.94a18.06,18.06,0,0,0-5-2.75,17.33,17.33,0,0,0-6.08-1.11,16.08,16.08,0,0,0-2.18.15,8.58,8.58,0,0,0-2.09.56,4,4,0,0,0-1.53,1,2.28,2.28,0,0,0-.64,1.59,2.37,2.37,0,0,0,1,2.07,11.5,11.5,0,0,0,3.88,1.31l3.59,0.75a37.74,37.74,0,0,1,3.71,1,12.39,12.39,0,0,1,5.76,3.48A8.56,8.56,0,0,1,125.08,66.39Z" transform="translate(-0.76 -0.8)"/>
    <path id="_Compound_Path_47" data-name="&lt;Compound Path&gt;" class="cls-2" d="M158.76,77.07h-9l-2.37-6.87H134.77l-2.37,6.87h-8.83l12.55-34h10.09ZM145.24,64L141.06,51.8,136.88,64h8.36Z" transform="translate(-0.76 -0.8)"/>
  </g>
</svg>
