<?xml version="1.0" encoding="utf-8"?>
<!-- Generator: Adobe Illustrator 20.1.0, SVG Export Plug-In . SVG Version: 6.00 Build 0)  -->
<svg version="1.1" id="Layer_2" xmlns="http://www.w3.org/2000/svg" xmlns:xlink="http://www.w3.org/1999/xlink" x="0px" y="0px"
	 viewBox="0 0 645.8 151.7" style="enable-background:new 0 0 645.8 151.7;" xml:space="preserve">
<style type="text/css">
	.st0{fill:#808385;}
	.st1{fill:#226DA7;}
	.st2{fill:#D42F2C;}
</style>
<g>
	<g>
		<path class="st0" d="M198.2,39.4h9.2v75h-9.2V39.4z"/>
		<path class="st0" d="M220.6,39.4h20.1c23.3,0,26.3,16.8,26.3,37.5c0,18.9-4.7,37.5-25.3,37.5h-21V39.4z M229.8,106.9h9.7
			c16,0,17.8-16.4,17.8-29.8c0-14.5-0.9-30.1-17.8-30.1h-9.7V106.9z"/>
		<path class="st0" d="M271.7,39.4h9.7l14.7,64.4h0.2L311,39.4h9.7l-18.9,75H290L271.7,39.4z"/>
		<path class="st0" d="M323,75.2c0-12.8,5.5-18.5,18.9-18.5c17.1,0,17.1,10.3,17.1,16.2v31.4c0,2.3,0,4.5,2.7,4.5
			c1.2,0,1.7-0.2,2.1-0.5v6.3c-0.6,0.1-2.9,0.5-5.1,0.5c-3.4,0-7.6,0-8-7.3h-0.2c-2.8,5-8.3,8.1-13.6,8.1
			c-10.5,0-15.3-6.3-15.3-16.4c0-7.9,3.4-13.3,10.6-15.6l11.9-3.6c6.4-2,6.4-3.8,6.4-8.5c0-5.3-3.2-8.3-9-8.3c-9.7,0-9.7,9-9.7,11
			v0.5H323z M350.2,83.8c-3.3,3.5-11,4.2-15,6.6c-2.8,1.8-4.3,4-4.3,8.9c0,5.7,2,9.7,8,9.7c5.8,0,11.3-4.9,11.3-10.7V83.8z"/>
		<path class="st0" d="M371.6,39.4h8.8v75h-8.8V39.4z"/>
		<path class="st0" d="M393,39.4h8.8v10.1H393V39.4z M393,58.1h8.8v56.3H393V58.1z"/>
		<path class="st0" d="M451,114.5h-8.4v-6.9h-0.2c-1.2,4.2-6.1,8.4-12.2,8.4c-13.3,0-18.4-11.9-18.4-29.6c0-11.8,1.9-29.6,17.8-29.6
			c5,0,10.4,3,12.4,7.9h0.2V39.4h8.8V114.5z M431.4,108.4c9.8,0,11.3-9.2,11.3-22.1c0-10.9-1.9-22.1-11.3-22.1
			c-8.2,0-10.3,8.6-10.3,22.1S423.2,108.4,431.4,108.4z"/>
		<path class="st0" d="M461.2,75.2c0-12.8,5.5-18.5,18.9-18.5c17.1,0,17.1,10.3,17.1,16.2v31.4c0,2.3,0,4.5,2.7,4.5
			c1.2,0,1.7-0.2,2.1-0.5v6.3c-0.6,0.1-2.9,0.5-5.2,0.5c-3.4,0-7.6,0-8-7.3h-0.2c-2.8,5-8.3,8.1-13.6,8.1
			c-10.5,0-15.3-6.3-15.3-16.4c0-7.9,3.4-13.3,10.6-15.6l11.9-3.6c6.4-2,6.4-3.8,6.4-8.5c0-5.3-3.2-8.3-9-8.3c-9.7,0-9.7,9-9.7,11
			v0.5H461.2z M488.4,83.8c-3.3,3.5-11,4.2-15,6.6c-2.8,1.8-4.3,4-4.3,8.9c0,5.7,2,9.7,8,9.7c5.8,0,11.3-4.9,11.3-10.7V83.8z"/>
		<path class="st0" d="M512.9,41.7h8.8v16.4h9.8v6.9h-9.8v36.1c0,4.5,1.2,6.3,5.8,6.3c1.9,0,2.9-0.2,3.9-0.3v7.3
			c-1.2,0.2-3.5,0.6-7.1,0.6c-9.1,0-11.3-3.8-11.3-11.1V65.1h-8.2v-6.9h8.2V41.7z"/>
		<path class="st0" d="M538,39.4h8.8v10.1H538V39.4z M538,58.1h8.8v56.3H538V58.1z"/>
		<path class="st0" d="M576.5,56.7c16.3,0,20.3,13.8,20.3,29.6s-4.1,29.6-20.3,29.6c-16.3,0-20.3-13.8-20.3-29.6
			S560.3,56.7,576.5,56.7z M587.5,86.3c0-12.2-1.8-22.7-11.2-22.7c-8.9,0-10.8,10.5-10.8,22.7s1.8,22.7,10.8,22.7
			C585.6,109,587.5,98.5,587.5,86.3z"/>
		<path class="st0" d="M605.6,58.1h8.4v6.6h0.2c2.3-5.2,8.2-8.1,13.7-8.1c14.8,0,14.8,11.2,14.8,17.9v39.9h-8.8V75.6
			c0-4.3-0.3-11.3-8.3-11.3c-4.7,0-11.1,3.2-11.1,11.3v38.9h-8.8V58.1z"/>
	</g>
	<g>
		<g>
			<path class="st1" d="M144.1,151.1h-0.8v-5.7h-1.6v-0.7h4v0.7h-1.6V151.1z"/>
			<path class="st1" d="M146.3,144.7h1.3l1.3,5.1h0l1.3-5.1h1.3v6.4h-0.8v-5.6h0l-1.4,5.6h-0.8l-1.4-5.6h0v5.6h-0.8V144.7z"/>
		</g>
		<rect x="2.3" y="37.5" class="st1" width="28.8" height="113.8"/>
		<rect x="2.3" y="3.5" class="st0" width="28.8" height="26.4"/>
		<polygon class="st2" points="41.5,59.5 73.2,59.5 88.5,96.1 132.7,0 162.2,0 104.8,120.4 71.1,120.4 		"/>
		<g>
			<path class="st1" d="M72,55.6V31.3h23.2c6.9,0,12.7,0.9,17.7,2.5L125.2,7c-6.8-2-14.2-3-22-3H39.6v51.6H72z"/>
			<path class="st1" d="M154.3,25.7l-17.9,37.6c1,5.1,1.4,10.7,1.4,16.8c0,28.8-14,41.2-30.2,43.8l-0.2,0.1l-6.3,0.4H72h-3.4
				l-29.1-60v87.3h63.7c45.1,0,67-31.9,67-74.7C170.2,54.8,164.3,37.7,154.3,25.7z"/>
		</g>
	</g>
</g>
</svg>
